<svg fill="#000000" xmlns="http://www.w3.org/2000/svg" viewBox="0 0 50 50" width="100px" height="100px"><path d="M 14 4 C 8.4886661 4 4 8.4886661 4 14 L 4 36 C 4 41.511334 8.4886661 46 14 46 L 36 46 C 41.511334 46 46 41.511334 46 36 L 46 14 C 46 8.4886661 41.511334 4 36 4 L 14 4 z M 14 6 L 36 6 C 40.430666 6 44 9.5693339 44 14 L 44 36 C 44 40.430666 40.430666 44 36 44 L 14 44 C 9.5693339 44 6 40.430666 6 36 L 6 14 C 6 9.5693339 9.5693339 6 14 6 z M 34 18.009766 A 1 1 0 0 0 34 20.009766 A 1 1 0 0 0 34 18.009766 z M 9.25 21.009766 L 9.25 28.009766 L 10.75 28.009766 L 10.75 22.869141 C 11.242668 22.749795 11.737199 22.63579 12.226562 22.505859 C 12.726563 22.369859 13.202141 22.740016 13.244141 23.166016 L 13.251953 28.009766 L 14.751953 28.009766 L 14.753906 25.509766 L 14.759766 24.259766 L 14.753906 23.634766 L 14.75 23.318359 C 14.741534 23.172558 14.723729 23.027965 14.689453 22.884766 C 15.202471 22.760846 15.717076 22.641132 16.226562 22.505859 C 16.726562 22.368859 17.202141 22.741016 17.244141 23.166016 L 17.251953 28.009766 L 18.751953 28.009766 L 18.753906 25.509766 L 18.759766 24.259766 L 18.753906 23.634766 L 18.75 23.318359 C 18.741 23.163359 18.724547 23.009422 18.685547 22.857422 C 18.538547 22.248422 18.123797 21.725453 17.591797 21.439453 C 17.064797 21.146453 16.394375 21.108828 15.859375 21.298828 C 15.293468 21.491767 14.731792 21.700512 14.169922 21.908203 C 14.00164 21.721438 13.810124 21.556824 13.591797 21.439453 C 13.064797 21.146453 12.394375 21.108828 11.859375 21.298828 C 11.487747 21.42553 11.119723 21.565445 10.75 21.699219 L 10.75 21.009766 L 9.25 21.009766 z M 21.75 21.009766 L 20.251953 21.011719 L 20.253906 23.431641 C 20.244906 24.254641 20.236672 25.008672 20.263672 25.888672 C 20.306672 26.502672 20.640031 27.061969 21.082031 27.417969 C 21.527031 27.778969 22.073234 27.968906 22.615234 28.003906 C 23.137234 28.046906 23.749859 27.888156 24.130859 27.660156 C 24.171208 27.639321 24.209897 27.615122 24.25 27.59375 L 24.25 27.828125 L 25.75 27.828125 L 25.75 21.011719 L 24.25 21.011719 L 24.25 26.365234 C 24.038477 26.438556 23.825083 26.508305 23.617188 26.589844 C 23.265187 26.738844 23.038422 26.764469 22.732422 26.730469 C 22.158422 26.660469 21.720859 26.2035 21.755859 25.8125 C 21.764859 25.0805 21.767906 24.219687 21.753906 23.429688 L 21.75 21.009766 z M 33.25 21.009766 L 33.25 28.009766 L 34.75 28.009766 L 34.75 21.009766 L 33.25 21.009766 z M 39.224609 21.013672 C 38.869609 21.033547 38.514453 21.114406 38.189453 21.253906 C 36.869453 21.831906 36.22 23.191344 36.25 24.402344 C 36.26 24.970344 36.349609 25.565344 36.599609 26.152344 C 36.859609 26.721344 37.319219 27.289234 37.949219 27.615234 C 38.569219 27.950234 39.270391 28.045047 39.900391 27.998047 C 40.280391 27.961047 40.65 27.895203 41 27.783203 L 41 26.759766 C 40.11 26.899766 39.229922 26.899578 38.669922 26.517578 C 38.039922 26.126578 37.74 25.288766 37.75 24.384766 C 37.73 23.564766 38.130547 22.782203 38.810547 22.408203 C 39.450547 22.063203 40.28 22.203266 41 22.697266 L 41 21.466797 C 40.77 21.327797 40.529766 21.216812 40.259766 21.132812 C 39.934766 21.034813 39.579609 20.993797 39.224609 21.013672 z M 29.705078 21.025391 C 29.44075 21.049125 29.177172 21.100391 28.919922 21.181641 C 28.036922 21.459641 27.405359 22.055063 27.318359 22.664062 C 27.156359 23.803062 27.990391 24.470297 28.400391 24.654297 C 28.810391 24.876297 29.179531 24.973312 29.519531 25.070312 C 30.209531 25.235312 30.647641 25.421969 30.806641 25.667969 C 30.893641 25.802969 30.929688 25.905938 30.929688 26.085938 C 30.929687 26.265938 30.889219 26.426969 30.699219 26.542969 C 30.309219 26.755969 29.639297 26.833625 29.029297 26.765625 C 28.419297 26.707625 27.64 26.436781 27 26.175781 L 27 27.25 C 27.59 27.617 28.219141 27.811734 28.869141 27.927734 C 29.639141 28.033734 30.430312 28.101844 31.320312 27.714844 C 31.750313 27.540844 32.271484 27.15175 32.271484 26.09375 C 32.271484 24.98975 31.470312 24.504547 31.070312 24.310547 C 30.670312 24.107547 30.300937 24.010297 29.960938 23.904297 C 29.630938 23.797297 28.759766 23.655297 28.759766 22.904297 C 28.759766 22.591297 29.089844 22.416844 29.339844 22.339844 C 30.179844 22.059844 31.17 22.275172 32 22.701172 L 32 21.462891 C 31.3025 21.128391 30.498062 20.954187 29.705078 21.025391 z M 39.603516 31.009766 C 38.492516 31.009766 37.173172 31.290234 36.201172 31.990234 C 35.923172 32.200234 35.922531 32.480469 36.269531 32.480469 C 37.380531 32.340469 39.881188 31.989141 40.367188 32.619141 C 40.784188 33.179141 39.881844 35.561641 39.464844 36.681641 C 39.325844 37.031641 39.604813 37.100625 39.882812 36.890625 C 41.757812 35.279625 42.244484 31.988359 41.896484 31.568359 C 41.688484 31.219359 40.714516 31.009766 39.603516 31.009766 z M 8.9628906 31.771484 C 8.9071406 31.782359 8.8549062 31.811875 8.8164062 31.859375 C 8.7294063 31.966375 8.7465156 32.125891 8.8535156 32.212891 C 10.913516 33.880891 13.244937 35.152578 15.710938 36.142578 C 18.184937 37.100578 20.808094 37.7575 23.496094 37.9375 C 26.185094 38.1225 28.887422 37.870031 31.482422 37.207031 C 34.079422 36.535031 36.553578 35.501641 38.767578 33.931641 C 38.960578 33.795641 39.035594 33.536453 38.933594 33.314453 C 38.817594 33.063453 38.520531 32.955312 38.269531 33.070312 L 38.230469 33.087891 C 35.965469 34.130891 33.502547 34.863188 31.060547 35.367188 C 28.608547 35.877187 26.096328 36.071375 23.611328 35.984375 C 21.120328 35.883375 18.645891 35.387313 16.212891 34.695312 C 13.798891 33.955313 11.393531 33.023641 9.1445312 31.806641 L 9.1289062 31.796875 C 9.0774063 31.768875 9.0186406 31.760609 8.9628906 31.771484 z"/></svg>